<?xml version="1.0" encoding="UTF-8" standalone="no"?>
<svg
   id="Layer_1"
   data-name="Layer 1"
   viewBox="0 0 200 200"
   version="1.1"
   sodipodi:docname="hamburger.svg"
   inkscape:version="1.2.1 (9c6d41e410, 2022-07-14)"
   xmlns:inkscape="http://www.inkscape.org/namespaces/inkscape"
   xmlns:sodipodi="http://sodipodi.sourceforge.net/DTD/sodipodi-0.dtd"
   xmlns="http://www.w3.org/2000/svg"
   xmlns:svg="http://www.w3.org/2000/svg">
  <sodipodi:namedview
     id="namedview15"
     pagecolor="#505050"
     bordercolor="#eeeeee"
     borderopacity="1"
     inkscape:showpageshadow="0"
     inkscape:pageopacity="0"
     inkscape:pagecheckerboard="0"
     inkscape:deskcolor="#505050"
     showgrid="false"
     inkscape:zoom="3.245"
     inkscape:cx="100.15408"
     inkscape:cy="100.15408"
     inkscape:window-width="1680"
     inkscape:window-height="979"
     inkscape:window-x="1592"
     inkscape:window-y="-8"
     inkscape:window-maximized="1"
     inkscape:current-layer="Layer_1" />
  <defs
     id="defs4">
    <style
       id="style2">.cls-1{fill:#fff;}</style>
  </defs>
  <title
     id="title6">Hamburger</title>
  <rect
     class="cls-1"
     x="50"
     y="50"
     width="100"
     height="20"
     rx="4.47"
     id="rect8" />
  <rect
     class="cls-1"
     x="50"
     y="90"
     width="100"
     height="20"
     rx="4.47"
     id="rect10" />
  <rect
     class="cls-1"
     x="50"
     y="130"
     width="100"
     height="20"
     rx="4.47"
     id="rect12" />
  <path
     style="fill:#006680;stroke-width:0.308166"
     d="m 53.466872,69.729947 c -0.994994,-0.252332 -2.285422,-1.297669 -2.778147,-2.250495 -0.3627,-0.701385 -0.4576,-2.247145 -0.4576,-7.453548 0,-7.386251 0.183043,-8.162753 2.176167,-9.231677 1.003603,-0.538238 3.105072,-0.563102 47.592708,-0.563102 44.48764,0 46.58911,0.02486 47.59271,0.563102 1.99312,1.068924 2.17617,1.845426 2.17617,9.231677 0,7.262702 -0.10575,7.7611 -1.92139,9.056118 l -1.0062,0.71767 -46.37904,0.04328 c -25.508475,0.0238 -46.656395,-0.02706 -46.995378,-0.113023 z"
     id="path259" />
  <path
     style="fill:#006680;stroke-width:0.308166"
     d="M 52.172126,109.10338 C 50.36269,108.00011 50.231125,107.38306 50.231125,100 c 0,-7.383061 0.131565,-8.000107 1.941001,-9.103385 0.967076,-0.589661 1.912586,-0.601553 47.827874,-0.601553 45.91529,0 46.8608,0.01189 47.82787,0.601553 1.80944,1.103278 1.94101,1.720324 1.94101,9.103385 0,7.38306 -0.13157,8.00011 -1.94101,9.10338 -0.96707,0.58967 -1.91258,0.60156 -47.82787,0.60156 -45.915288,0 -46.860798,-0.0119 -47.827874,-0.60156 z"
     id="path261" />
  <path
     style="fill:#006680;stroke-width:0.308166"
     d="m 52.407292,149.20577 c -1.993124,-1.06892 -2.176167,-1.84542 -2.176167,-9.23167 0,-7.26271 0.105742,-7.7611 1.92139,-9.05612 l 1.006191,-0.71767 H 100 146.84129 l 1.0062,0.71767 c 1.81564,1.29502 1.92139,1.79341 1.92139,9.05612 0,7.38625 -0.18305,8.16275 -2.17617,9.23167 -1.0036,0.53824 -3.10507,0.56311 -47.59271,0.56311 -44.487636,0 -46.589105,-0.0249 -47.592708,-0.56311 z"
     id="path263" />
  <path
     style="fill:#0066ff;stroke-width:0.308166"
     d="m 52.480292,69.041752 c -1.827738,-1.114437 -1.978995,-1.799582 -1.982099,-8.978226 -0.0033,-7.579229 0.215454,-8.433765 2.352346,-9.190125 1.845608,-0.653259 92.453311,-0.653259 94.298921,0 2.12942,0.753717 2.34084,1.584249 2.33865,9.187179 -0.002,7.109259 -0.12872,7.724238 -1.84228,8.944401 l -0.89968,0.640628 -46.63964,-0.0012 c -45.714222,-0.0011 -46.659214,-0.01309 -47.626218,-0.602705 z"
     id="path186" />
  <path
     style="fill:#0066ff;stroke-width:0.308166"
     d="m 67.782621,109.42798 c -13.710171,-0.1677 -15.030844,-0.22939 -15.807283,-0.7384 -0.465973,-0.30547 -0.985738,-0.91972 -1.155034,-1.36501 -0.474952,-1.24921 -0.398139,-13.773978 0.0908,-14.804734 0.219233,-0.462181 0.953306,-1.113422 1.631272,-1.447201 C 53.75203,90.477091 54.637979,90.465762 100,90.465762 c 45.36202,0 46.24797,0.01133 47.45763,0.606873 1.91316,0.941899 2.01648,1.399296 2.01648,8.927365 0,7.43055 -0.12049,8.00232 -1.8624,8.83784 -0.98284,0.47143 -3.90977,0.52871 -32.97381,0.64524 -17.542365,0.0703 -38.627243,0.0455 -46.855276,-0.0551 z"
     id="path188" />
  <path
     style="fill:#0066ff;stroke-width:0.308166"
     d="m 66.409861,149.49433 c -10.439373,-0.14451 -13.724868,-0.28205 -14.278785,-0.59772 -1.403206,-0.79967 -1.631009,-2.0623 -1.625999,-9.01234 0.0051,-7.04158 0.135621,-7.66915 1.849093,-8.88925 l 0.899679,-0.64063 H 100 146.74615 l 0.89968,0.64063 c 1.71356,1.22016 1.84023,1.83514 1.84228,8.9444 0.002,7.53359 -0.22599,8.46362 -2.23741,9.1202 -1.33315,0.43517 -58.573181,0.74298 -80.840839,0.43471 z"
     id="path190" />
</svg>
